#!OML:ASF F:\VICON\USERDATA\INSTALL\rory3\rory3.ASF
:FULLY-SPECIFIED
:DEGREES
3650
root -12.6144 17.8165 8.94515 -1442.7 -28.4338 -2.78883
lowerback 9.36814 2.66677 1.1656
upperback 0.843961 3.68857 0.652024
thorax -4.33787 1.80546 -0.452869
lowerneck -19.7884 -2.33211 -8.7736
upperneck 29.2362 -2.23149 5.58274
head 13.3091 -1.23777 3.31218
rclavicle -3.23211e-014 -2.68359e-015
rhumerus -29.2466 -8.57147 -82.5047
rradius 34.1443
rwrist 3.65243
rhand -16.9368 8.80054
rfingers 7.12502
rthumb 9.29629 -20.9745
lclavicle -3.23211e-014 -2.68359e-015
lhumerus -36.6509 4.56813 82.1836
lradius 27.7732
lwrist -9.93114
lhand -15.0049 24.715
lfingers 7.12502
lthumb 11.1601 54.3982
rfemur -1.39474 -10.8162 19.0782
rtibia 52.0659
rfoot 4.02597 4.88902
rtoes -4.68372
lfemur -10.2647 5.55207 -27.1366
ltibia 14.0893
lfoot 0.1763 5.81557
ltoes 6.72061
3651
root -12.6518 17.8164 9.05068 -1443.04 -27.7912 -2.46721
lowerback 9.35356 2.64702 0.965864
upperback 0.901932 3.63412 0.510284
thorax -4.27306 1.78184 -0.478643
lowerneck -19.7817 -2.38346 -8.84647
upperneck 29.2181 -2.30957 5.67839
head 13.3097 -1.26596 3.34931
rclavicle -4.80189e-015 -2.18663e-015
rhumerus -29.6551 -8.47177 -82.6669
rradius 34.452
rwrist 3.47242
rhand -16.9805 8.80323
rfingers 7.12502
rthumb 9.25417 -20.9737
lclavicle -4.80189e-015 -2.18663e-015
lhumerus -36.3963 4.10086 82.2557
lradius 27.8707
lwrist -9.94035
lhand -15.1563 24.4161
lfingers 7.12502
lthumb 11.014 54.1071
rfemur -2.15404 -10.864 18.4974
rtibia 53.6979
rfoot 4.46719 5.78192
rtoes -5.62489
lfemur -9.59078 5.56616 -27.5576
ltibia 13.9076
lfoot 0.244697 5.30519
ltoes 7.81956
3652
root -12.6877 17.8141 9.1549 -1443.43 -27.1484 -1.94235
lowerback 9.33081 2.63662 0.511047
upperback 0.931599 3.56755 0.389124
thorax -4.25021 1.75633 -0.339809
lowerneck -19.8639 -2.38486 -8.93844
upperneck 29.3042 -2.27105 5.67954
head 13.3615 -1.25922 3.37539
rclavicle -5.06311e-014 7.95139e-016
rhumerus -30.0604 -8.0443 -82.7781
rradius 34.7254
rwrist 3.16254
rhand -17.1483 8.57442
rfingers 7.12502
rthumb 9.09229 -21.2096
lclavicle -5.06311e-014 7.95139e-016
lhumerus -36.1733 3.55793 82.472
lradius 28.0027
lwrist -9.90348
lhand -15.0023 24.1443
lfingers 7.12502
lthumb 11.1626 53.8274
rfemur -2.89091 -10.826 17.7124
rtibia 55.228
rfoot 4.18748 5.82722
rtoes -5.60234
lfemur -8.93983 5.48621 -28.1784
ltibia 13.749
lfoot 0.0659231 4.85137
ltoes 8.39279
3653
root -12.7222 17.809 9.25501 -1443.83 -26.4623 -1.40734
lowerback 9.38711 2.61886 0.0289546
upperback 0.920228 3.48945 0.273848
thorax -4.31551 1.7249 -0.18331
lowerneck -19.8072 -2.34357 -8.97728
upperneck 29.4164 -2.17578 5.59496
head 13.3878 -1.23585 3.36785
rclavicle -9.89264e-015 7.95139e-016
rhumerus -30.4859 -7.74555 -82.8364
rradius 34.8282
rwrist 3.0466
rhand -17.3683 8.56502
rfingers 7.12502
rthumb 8.87991 -21.2281
lclavicle -9.89264e-015 7.95139e-016
lhumerus -35.9702 3.12762 82.6624
lradius 28.1564
lwrist -10.024
lhand -14.7459 24.2096
lfingers 7.12502
lthumb 11.4098 53.8792
rfemur -3.58456 -10.7112 16.941
rtibia 56.6751
rfoot 3.31405 5.33787
rtoes -5.78294
lfemur -8.20732 5.38371 -28.8402
ltibia 13.4686
lfoot -0.0966632 4.44602
ltoes 8.1368
3654
root -12.7566 17.8016 9.35267 -1444.19 -25.709 -0.915624
lowerback 9.49191 2.59832 -0.392065
upperback 0.887618 3.41123 0.121672
thorax -4.42323 1.6921 -0.101827
lowerneck -19.6276 -2.34413 -9.07292
upperneck 29.4182 -2.16549 5.61615
head 13.3514 -1.2407 3.39406
rclavicle -3.48091e-014 -2.98177e-015
rhumerus -30.8728 -7.75369 -82.9038
rradius 34.8398
rwrist 3.03906
rhand -17.5754 8.48
rfingers 7.12502
rthumb 8.68013 -21.3215
lclavicle -3.48091e-014 -2.98177e-015
lhumerus -35.7808 2.55088 82.8163
lradius 28.4121
lwrist -9.94267
lhand -14.5089 24.4684
lfingers 7.12502
lthumb 11.6384 54.1252
rfemur -4.29681 -10.5498 16.2635
rtibia 58.0246
rfoot 2.05336 4.44808
rtoes -5.62567
lfemur -7.45058 5.28547 -29.469
ltibia 13.1302
lfoot -0.141287 3.98461
ltoes 6.94198
